<svg width="207" height="34" viewBox="0 0 207 34" fill="none" xmlns="http://www.w3.org/2000/svg">
<path fill-rule="evenodd" clip-rule="evenodd" d="M16.6652 30.4835C9.4191 30.4835 3.23412 23.9112 3.23412 16.7426C3.23412 9.60056 9.28965 2.89776 16.6132 2.89776C21.4273 2.89776 24.8937 5.22681 27.7151 8.87584H31.2602C30.1991 6.9606 29.0606 5.20136 27.3268 3.82938C24.3505 1.42288 20.4945 0 16.6652 0C7.47841 0 0 7.58241 0 16.7172C0 25.8774 7.58242 33.3823 16.7172 33.3823C20.4436 33.3823 24.0927 32.0114 27.017 29.7078C28.8548 28.233 30.1482 26.3177 31.3907 24.3505H27.8457C25.0497 27.9995 21.4793 30.4835 16.6652 30.4835ZM53.4122 13.0161C51.1871 10.1438 48.1588 8.33258 44.4069 8.33258C37.6786 8.33258 32.1409 13.794 32.1409 20.5222C32.1409 27.2493 37.7052 32.7616 44.4069 32.7616C48.3148 32.7616 51.0311 31.1307 53.4122 28.129V32.2172H56.3365V8.90128H53.4122V13.0161ZM44.252 30.0696C39.1015 30.0696 35.0387 25.593 35.0387 20.5476C35.0387 15.5266 39.076 11.0245 44.252 11.0245C49.4013 11.0245 53.4122 15.5277 53.4122 20.5476C53.4122 25.593 49.3748 30.0696 44.252 30.0696ZM59.8815 32.2172H63.0138V0.67161H59.8815V32.2172ZM74.8394 28.5162L66.9206 8.90128H63.8149L73.3125 32.2172H76.4692L85.9414 8.90128H82.8876L74.8394 28.5162ZM87.2348 32.2172H90.3661V8.90128H87.2348V32.2172ZM87.2348 5.89952H90.3661V0.67161H87.2348V5.89952ZM103.849 8.33147C100.898 8.33147 98.8026 9.88491 96.8619 11.9551V8.90128H93.9631V32.2172H97.0423V18.0095C97.0168 14.2575 100.122 11.0234 103.9 11.0234C108.634 11.0234 111.015 15.1383 111.015 19.3826V32.2183H113.913V19.3826C113.914 13.327 110.37 8.33147 103.849 8.33147ZM142.976 0.67161L128.743 18.7607V0.67161H125.664V32.2172H128.743V23.5483L132.78 18.5284L143.053 32.2172H146.963L134.746 16.0433L146.963 0.67161H142.976ZM148.1 32.2172H151.155V0.67161H148.1V32.2172ZM176.437 14.7754C174.315 10.8154 170.07 8.33147 165.593 8.33147C158.918 8.33147 153.275 13.8957 153.275 20.572C153.275 27.2991 158.968 32.7605 165.647 32.7605C168.828 32.7605 171.961 31.4925 174.263 29.2929C175.661 27.9729 176.489 26.3166 177.238 24.5828H173.953C172.296 27.818 169.371 30.0685 165.592 30.0685C163.29 30.0685 161.039 29.1369 159.331 27.558C157.57 25.9548 156.794 23.9864 156.457 21.6585H177.964C177.965 19.2266 177.627 16.8975 176.437 14.7754ZM156.562 18.9676C157.496 14.595 160.936 11.0234 165.647 11.0234C169.606 11.0234 173.85 13.4565 174.782 18.9676H156.562ZM180.242 32.2172H183.32V8.90128H180.242V32.2172ZM180.242 6.00353H183.32V0.67161H180.242V6.00353ZM196.856 8.33147C193.852 8.33147 191.757 9.88491 189.789 11.9551V8.90128H186.84V32.2172H189.945V18.0095C189.92 14.2321 193.103 11.0234 196.906 11.0234C201.617 11.0234 204.102 15.1383 204.102 19.3826V32.2183H207V19.3826C207 13.327 203.402 8.33147 196.856 8.33147Z" fill="white"/>
</svg>
