<svg width="300" height="49" viewBox="0 0 300 49" fill="none" xmlns="http://www.w3.org/2000/svg">
<g filter="url(#filter0_dd_20_319)">
<rect x="9.20528" y="4.71473" width="46.7002" height="30.0857" rx="5.37857" fill="white"/>
<rect x="9.09323" y="4.60267" width="46.9243" height="30.3098" rx="5.49062" stroke="#D6DCE5" stroke-width="0.224107"/>
<path d="M32.2698 14.8544L30.0916 25.0366H27.4576L29.6362 14.8544H32.2698ZM43.3519 21.4291L44.7386 17.6053L45.5366 21.4291H43.3519ZM46.2907 25.0366H48.7271L46.6011 14.8544H44.3522C43.8469 14.8544 43.4205 15.1483 43.2307 15.6014L39.279 25.0366H42.0451L42.5942 23.5162H45.9736L46.2907 25.0366ZM39.4163 21.7121C39.4275 19.0246 35.6998 18.8767 35.7256 17.6762C35.7333 17.3104 36.0817 16.9224 36.8426 16.8228C37.2206 16.7735 38.2599 16.7358 39.4401 17.2788L39.9023 15.1196C39.2683 14.8895 38.4527 14.6681 37.4381 14.6681C34.8348 14.6681 33.0024 16.0523 32.9869 18.0343C32.9705 19.5 34.295 20.3179 35.2931 20.8052C36.3192 21.3044 36.664 21.6241 36.6595 22.0704C36.6528 22.754 35.841 23.055 35.0836 23.0669C33.7591 23.0878 32.9904 22.7095 32.3778 22.424L31.9005 24.6551C32.5157 24.9377 33.6517 25.1833 34.8303 25.1958C37.597 25.1958 39.4072 23.8288 39.4163 21.7121ZM28.506 14.8544L24.2384 25.0366H21.4536L19.3537 16.9105C19.2261 16.41 19.1152 16.2269 18.7275 16.0158C18.0949 15.6726 17.0491 15.35 16.129 15.1502L16.1919 14.8544H20.6737C21.2448 14.8544 21.7588 15.2347 21.8884 15.8924L22.9977 21.7849L25.7386 14.8544H28.506Z" fill="#1434CB"/>
</g>
<g filter="url(#filter1_dd_20_319)">
<rect x="67.9275" y="4.71473" width="46.7002" height="30.0857" rx="5.37857" fill="white"/>
<rect x="67.8155" y="4.60267" width="46.9243" height="30.3098" rx="5.49062" stroke="#D6DCE5" stroke-width="0.224107"/>
<path d="M94.6323 13.5794H87.7564V25.9357H94.6323V13.5794Z" fill="#FF5F00"/>
<path d="M88.193 19.7575C88.1919 18.5675 88.4616 17.3929 88.9816 16.3225C89.5016 15.2521 90.2583 14.3141 91.1944 13.5794C90.0351 12.6682 88.6429 12.1016 87.1768 11.9442C85.7108 11.7869 84.23 12.0451 82.9038 12.6896C81.5776 13.334 80.4594 14.3386 79.6772 15.5884C78.8949 16.8383 78.48 18.283 78.48 19.7575C78.48 21.232 78.8949 22.6768 79.6772 23.9266C80.4594 25.1765 81.5776 26.1811 82.9038 26.8255C84.23 27.4699 85.7108 27.7282 87.1768 27.5709C88.6429 27.4135 90.0351 26.8468 91.1944 25.9356C90.2583 25.2009 89.5016 24.2629 88.9816 23.1925C88.4616 22.1222 88.1919 20.9475 88.193 19.7575Z" fill="#EB001B"/>
<path d="M103.908 19.7575C103.908 21.232 103.494 22.6767 102.711 23.9266C101.929 25.1765 100.811 26.181 99.4848 26.8255C98.1586 27.4699 96.6779 27.7282 95.2118 27.5709C93.7458 27.4135 92.3536 26.8468 91.1944 25.9356C92.1297 25.2002 92.8858 24.262 93.4057 23.1918C93.9256 22.1216 94.1957 20.9473 94.1957 19.7575C94.1957 18.5677 93.9256 17.3934 93.4057 16.3232C92.8858 15.253 92.1297 14.3149 91.1944 13.5794C92.3536 12.6682 93.7458 12.1016 95.2118 11.9442C96.6779 11.7869 98.1586 12.0452 99.4848 12.6896C100.811 13.334 101.929 14.3386 102.711 15.5885C103.494 16.8383 103.908 18.2831 103.908 19.7575Z" fill="#F79E1B"/>
<path d="M103.159 24.6269V24.374H103.261V24.3224H103.001V24.374H103.103V24.6269H103.159ZM103.663 24.6269V24.3219H103.583L103.492 24.5317L103.4 24.3219H103.32V24.6269H103.377V24.3969L103.463 24.5952H103.521L103.607 24.3964V24.6269H103.663Z" fill="#F79E1B"/>
</g>
<g filter="url(#filter2_dd_20_319)">
<rect x="126.65" y="4.71473" width="46.7002" height="30.0857" rx="5.37857" fill="white"/>
<rect x="126.538" y="4.60267" width="46.9243" height="30.3098" rx="5.49062" stroke="#D6DCE5" stroke-width="0.224107"/>
<path fill-rule="evenodd" clip-rule="evenodd" d="M136.866 15.3803H134.173C133.989 15.3803 133.832 15.5142 133.804 15.696L132.715 22.5995C132.693 22.7357 132.799 22.8585 132.937 22.8585H134.222C134.406 22.8585 134.563 22.7246 134.592 22.5425L134.886 20.6805C134.914 20.4982 135.071 20.3644 135.255 20.3644H136.107C137.881 20.3644 138.904 19.5063 139.172 17.8057C139.292 17.0617 139.177 16.4772 138.828 16.0677C138.446 15.6182 137.767 15.3803 136.866 15.3803ZM137.176 17.9017C137.029 18.8678 136.291 18.8678 135.577 18.8678H135.171L135.456 17.0636C135.473 16.9546 135.567 16.8743 135.678 16.8743H135.864C136.35 16.8743 136.809 16.8743 137.046 17.1514C137.187 17.3168 137.23 17.5623 137.176 17.9017ZM144.914 17.8708H143.625C143.515 17.8708 143.42 17.9511 143.403 18.0602L143.346 18.4207L143.256 18.2901C142.977 17.885 142.354 17.7496 141.733 17.7496C140.308 17.7496 139.091 18.8286 138.854 20.3422C138.731 21.0971 138.906 21.8191 139.335 22.3226C139.728 22.7855 140.29 22.9784 140.959 22.9784C142.107 22.9784 142.743 22.2402 142.743 22.2402L142.686 22.5986C142.664 22.7355 142.77 22.8583 142.907 22.8583H144.068C144.253 22.8583 144.409 22.7244 144.438 22.5423L145.135 18.1298C145.157 17.9941 145.052 17.8708 144.914 17.8708ZM143.117 20.3799C142.992 21.1164 142.408 21.6108 141.662 21.6108C141.288 21.6108 140.989 21.4908 140.796 21.2633C140.606 21.0374 140.533 20.7157 140.594 20.3575C140.71 19.6272 141.305 19.1168 142.039 19.1168C142.405 19.1168 142.703 19.2383 142.899 19.4678C143.095 19.6997 143.173 20.0232 143.117 20.3799ZM150.485 17.8706H151.781C151.963 17.8706 152.068 18.0741 151.965 18.2229L147.656 24.4425C147.586 24.5432 147.471 24.6031 147.348 24.6031H146.054C145.872 24.6031 145.766 24.398 145.871 24.2488L147.213 22.355L145.786 18.1673C145.737 18.0218 145.844 17.8706 145.999 17.8706H147.272C147.437 17.8706 147.583 17.9791 147.631 18.1374L148.388 20.6667L150.176 18.0347C150.246 17.932 150.362 17.8706 150.485 17.8706Z" fill="#253B80"/>
<path fill-rule="evenodd" clip-rule="evenodd" d="M164.534 22.5989L165.639 15.5692C165.656 15.4601 165.75 15.3797 165.86 15.3794H167.104C167.241 15.3794 167.347 15.5025 167.325 15.6388L166.236 22.5418C166.207 22.724 166.05 22.8579 165.866 22.8579H164.755C164.618 22.8579 164.512 22.7351 164.534 22.5989ZM156.071 15.3797H153.378C153.194 15.3797 153.038 15.5136 153.009 15.6954L151.92 22.5989C151.898 22.7351 152.004 22.8579 152.141 22.8579H153.523C153.652 22.8579 153.761 22.7643 153.781 22.6367L154.09 20.6799C154.119 20.4975 154.276 20.3638 154.46 20.3638H155.312C157.086 20.3638 158.109 19.5056 158.377 17.8051C158.497 17.0611 158.381 16.4766 158.033 16.067C157.651 15.6176 156.972 15.3797 156.071 15.3797ZM156.382 17.9011C156.235 18.8671 155.497 18.8671 154.783 18.8671H154.377L154.662 17.063C154.679 16.954 154.773 16.8737 154.883 16.8737H155.07C155.555 16.8737 156.015 16.8737 156.251 17.1508C156.393 17.3162 156.436 17.5617 156.382 17.9011ZM164.119 17.8701H162.83C162.72 17.8701 162.626 17.9505 162.609 18.0596L162.552 18.4201L162.461 18.2895C162.182 17.8843 161.56 17.749 160.939 17.749C159.514 17.749 158.298 18.828 158.061 20.3416C157.938 21.0965 158.112 21.8184 158.541 22.322C158.934 22.7848 159.496 22.9778 160.165 22.9778C161.313 22.9778 161.949 22.2396 161.949 22.2396L161.892 22.5979C161.87 22.7349 161.976 22.8577 162.114 22.8577H163.275C163.459 22.8577 163.615 22.7238 163.644 22.5417L164.341 18.1292C164.363 17.9935 164.257 17.8701 164.119 17.8701ZM162.322 20.3793C162.198 21.1158 161.613 21.6102 160.867 21.6102C160.493 21.6102 160.193 21.4902 160.001 21.2627C159.811 21.0368 159.739 20.7151 159.799 20.3569C159.916 19.6266 160.51 19.1162 161.244 19.1162C161.61 19.1162 161.907 19.2377 162.104 19.4672C162.301 19.6991 162.379 20.0226 162.322 20.3793Z" fill="#179BD7"/>
</g>
<g filter="url(#filter3_dd_20_319)">
<rect x="185.372" y="4.71473" width="46.7002" height="30.0857" rx="5.37857" fill="white"/>
<rect x="185.26" y="4.60267" width="46.9243" height="30.3098" rx="5.49062" stroke="#D6DCE5" stroke-width="0.224107"/>
<path d="M200.477 15.8169C200.789 15.4272 201 14.9039 200.944 14.3692C200.488 14.3919 199.932 14.6701 199.609 15.0601C199.32 15.3941 199.064 15.9392 199.131 16.4515C199.643 16.4959 200.154 16.1956 200.477 15.8169Z" fill="#000008"/>
<path d="M200.938 16.5516C200.195 16.5073 199.563 16.9735 199.208 16.9735C198.852 16.9735 198.309 16.5739 197.721 16.5847C196.955 16.5959 196.245 17.0287 195.856 17.717C195.058 19.094 195.646 21.1365 196.423 22.258C196.8 22.8128 197.255 23.4238 197.854 23.4018C198.42 23.3796 198.642 23.0353 199.33 23.0353C200.017 23.0353 200.217 23.4018 200.816 23.3907C201.438 23.3796 201.826 22.8356 202.204 22.2802C202.636 21.6477 202.814 21.037 202.825 21.0035C202.814 20.9924 201.626 20.537 201.615 19.1715C201.604 18.0281 202.547 17.4842 202.592 17.4505C202.059 16.6627 201.227 16.5739 200.938 16.5516Z" fill="#000008"/>
<path d="M207.412 15.0042C209.028 15.0042 210.154 16.1181 210.154 17.7399C210.154 19.3675 209.005 20.4873 207.372 20.4873H205.583V23.3327H204.29V15.0042L207.412 15.0042ZM205.583 19.4022H207.066C208.191 19.4022 208.832 18.7962 208.832 17.7457C208.832 16.6953 208.191 16.0951 207.072 16.0951H205.583V19.4022Z" fill="#000008"/>
<path d="M210.491 21.607C210.491 20.5449 211.305 19.8928 212.748 19.8119L214.41 19.7139V19.2464C214.41 18.5711 213.954 18.1671 213.193 18.1671C212.471 18.1671 212.021 18.5133 211.911 19.0559H210.734C210.803 17.9592 211.738 17.1512 213.239 17.1512C214.711 17.1512 215.651 17.9304 215.651 19.1482V23.3327H214.456V22.3342H214.428C214.076 23.0095 213.308 23.4365 212.512 23.4365C211.323 23.4365 210.491 22.6978 210.491 21.607ZM214.41 21.0587V20.5797L212.915 20.672C212.171 20.7239 211.75 21.0529 211.75 21.5724C211.75 22.1033 212.188 22.4496 212.858 22.4496C213.729 22.4496 214.41 21.8494 214.41 21.0587Z" fill="#000008"/>
<path d="M216.779 25.5664V24.5563C216.871 24.5793 217.079 24.5793 217.183 24.5793C217.76 24.5793 218.072 24.337 218.262 23.7136C218.262 23.7021 218.372 23.3443 218.372 23.3385L216.179 17.2609H217.529L219.065 22.2015H219.088L220.623 17.2609H221.939L219.665 23.6501C219.146 25.1219 218.545 25.5952 217.287 25.5952C217.183 25.5952 216.871 25.5836 216.779 25.5664Z" fill="#000008"/>
</g>
<g filter="url(#filter4_dd_20_319)">
<rect x="244.094" y="4.71473" width="46.7002" height="30.0857" rx="5.37857" fill="white"/>
<rect x="243.982" y="4.60267" width="46.9243" height="30.3098" rx="5.49062" stroke="#D6DCE5" stroke-width="0.224107"/>
<path d="M266.429 23.3633H265.379V15.19H268.164C268.869 15.19 269.471 15.4253 269.963 15.8958C270.467 16.3663 270.718 16.9407 270.718 17.6191C270.718 18.3138 270.467 18.8883 269.963 19.3533C269.477 19.8183 268.875 20.0481 268.164 20.0481H266.429V23.3633ZM266.429 16.1967V19.0469H268.185C268.601 19.0469 268.951 18.9047 269.225 18.6257C269.504 18.3467 269.646 18.0075 269.646 17.6245C269.646 17.247 269.504 16.9133 269.225 16.6343C268.951 16.3444 268.607 16.2021 268.185 16.2021H266.429V16.1967Z" fill="#3C4043"/>
<path d="M273.465 17.5862C274.241 17.5862 274.854 17.7941 275.303 18.2099C275.751 18.6257 275.976 19.1946 275.976 19.9168V23.3633H274.974V22.5865H274.931C274.499 23.2266 273.919 23.5439 273.196 23.5439C272.578 23.5439 272.064 23.3633 271.648 22.9968C271.233 22.6302 271.025 22.1762 271.025 21.6291C271.025 21.0492 271.243 20.5897 271.681 20.2505C272.119 19.9058 272.704 19.7362 273.432 19.7362C274.055 19.7362 274.57 19.8511 274.969 20.0809V19.8402C274.969 19.4736 274.827 19.1673 274.537 18.9101C274.247 18.653 273.908 18.5272 273.519 18.5272C272.934 18.5272 272.469 18.7734 272.13 19.2712L271.205 18.6913C271.714 17.9528 272.469 17.5862 273.465 17.5862ZM272.108 21.6455C272.108 21.919 272.223 22.1488 272.458 22.3294C272.688 22.5099 272.961 22.6029 273.273 22.6029C273.716 22.6029 274.11 22.4388 274.455 22.1105C274.799 21.7823 274.974 21.3993 274.974 20.9562C274.646 20.6991 274.192 20.5678 273.607 20.5678C273.18 20.5678 272.824 20.6717 272.54 20.8741C272.25 21.0875 272.108 21.3446 272.108 21.6455Z" fill="#3C4043"/>
<path d="M281.687 17.7668L278.186 25.8197H277.103L278.405 23.0023L276.096 17.7668H277.239L278.902 21.7823H278.924L280.544 17.7668H281.687Z" fill="#3C4043"/>
<path d="M262.251 19.3861C262.251 19.0436 262.221 18.7159 262.164 18.4008H257.761V20.2062L260.297 20.2067C260.194 20.8074 259.863 21.3195 259.356 21.6608V22.8321H260.865C261.746 22.0164 262.251 20.8107 262.251 19.3861Z" fill="#4285F4"/>
<path d="M259.356 21.6609C258.936 21.9443 258.395 22.11 257.762 22.11C256.539 22.11 255.502 21.2861 255.131 20.1756H253.574V21.3835C254.345 22.9142 255.93 23.9646 257.762 23.9646C259.028 23.9646 260.091 23.5483 260.866 22.8316L259.356 21.6609Z" fill="#34A853"/>
<path d="M254.984 19.2794C254.984 18.9676 255.036 18.6661 255.131 18.3828V17.1748H253.574C253.255 17.8078 253.075 18.5223 253.075 19.2794C253.075 20.0366 253.255 20.751 253.574 21.384L255.131 20.1761C255.036 19.8927 254.984 19.5912 254.984 19.2794Z" fill="#FABB05"/>
<path d="M257.762 16.4483C258.453 16.4483 259.072 16.6863 259.56 17.1513L260.898 15.8148C260.085 15.0582 259.026 14.5937 257.762 14.5937C255.931 14.5937 254.345 15.6441 253.574 17.1748L255.131 18.3828C255.502 17.2722 256.539 16.4483 257.762 16.4483Z" fill="#E94235"/>
</g>
<defs>
<filter id="filter0_dd_20_319" x="-5.25487e-05" y="-0.000209717" width="65.1108" height="48.4963" filterUnits="userSpaceOnUse" color-interpolation-filters="sRGB">
<feFlood flood-opacity="0" result="BackgroundImageFix"/>
<feColorMatrix in="SourceAlpha" type="matrix" values="0 0 0 0 0 0 0 0 0 0 0 0 0 0 0 0 0 0 127 0" result="hardAlpha"/>
<feOffset dy="0.448214"/>
<feGaussianBlur stdDeviation="2.24107"/>
<feColorMatrix type="matrix" values="0 0 0 0 0.717647 0 0 0 0 0.717647 0 0 0 0 0.717647 0 0 0 0.08 0"/>
<feBlend mode="normal" in2="BackgroundImageFix" result="effect1_dropShadow_20_319"/>
<feColorMatrix in="SourceAlpha" type="matrix" values="0 0 0 0 0 0 0 0 0 0 0 0 0 0 0 0 0 0 127 0" result="hardAlpha"/>
<feOffset dy="4.48214"/>
<feGaussianBlur stdDeviation="4.48214"/>
<feColorMatrix type="matrix" values="0 0 0 0 0.717647 0 0 0 0 0.717647 0 0 0 0 0.717647 0 0 0 0.08 0"/>
<feBlend mode="normal" in2="effect1_dropShadow_20_319" result="effect2_dropShadow_20_319"/>
<feBlend mode="normal" in="SourceGraphic" in2="effect2_dropShadow_20_319" result="shape"/>
</filter>
<filter id="filter1_dd_20_319" x="58.7222" y="-0.000209717" width="65.1108" height="48.4963" filterUnits="userSpaceOnUse" color-interpolation-filters="sRGB">
<feFlood flood-opacity="0" result="BackgroundImageFix"/>
<feColorMatrix in="SourceAlpha" type="matrix" values="0 0 0 0 0 0 0 0 0 0 0 0 0 0 0 0 0 0 127 0" result="hardAlpha"/>
<feOffset dy="0.448214"/>
<feGaussianBlur stdDeviation="2.24107"/>
<feColorMatrix type="matrix" values="0 0 0 0 0.717647 0 0 0 0 0.717647 0 0 0 0 0.717647 0 0 0 0.08 0"/>
<feBlend mode="normal" in2="BackgroundImageFix" result="effect1_dropShadow_20_319"/>
<feColorMatrix in="SourceAlpha" type="matrix" values="0 0 0 0 0 0 0 0 0 0 0 0 0 0 0 0 0 0 127 0" result="hardAlpha"/>
<feOffset dy="4.48214"/>
<feGaussianBlur stdDeviation="4.48214"/>
<feColorMatrix type="matrix" values="0 0 0 0 0.717647 0 0 0 0 0.717647 0 0 0 0 0.717647 0 0 0 0.08 0"/>
<feBlend mode="normal" in2="effect1_dropShadow_20_319" result="effect2_dropShadow_20_319"/>
<feBlend mode="normal" in="SourceGraphic" in2="effect2_dropShadow_20_319" result="shape"/>
</filter>
<filter id="filter2_dd_20_319" x="117.444" y="-0.000209717" width="65.1108" height="48.4963" filterUnits="userSpaceOnUse" color-interpolation-filters="sRGB">
<feFlood flood-opacity="0" result="BackgroundImageFix"/>
<feColorMatrix in="SourceAlpha" type="matrix" values="0 0 0 0 0 0 0 0 0 0 0 0 0 0 0 0 0 0 127 0" result="hardAlpha"/>
<feOffset dy="0.448214"/>
<feGaussianBlur stdDeviation="2.24107"/>
<feColorMatrix type="matrix" values="0 0 0 0 0.717647 0 0 0 0 0.717647 0 0 0 0 0.717647 0 0 0 0.08 0"/>
<feBlend mode="normal" in2="BackgroundImageFix" result="effect1_dropShadow_20_319"/>
<feColorMatrix in="SourceAlpha" type="matrix" values="0 0 0 0 0 0 0 0 0 0 0 0 0 0 0 0 0 0 127 0" result="hardAlpha"/>
<feOffset dy="4.48214"/>
<feGaussianBlur stdDeviation="4.48214"/>
<feColorMatrix type="matrix" values="0 0 0 0 0.717647 0 0 0 0 0.717647 0 0 0 0 0.717647 0 0 0 0.08 0"/>
<feBlend mode="normal" in2="effect1_dropShadow_20_319" result="effect2_dropShadow_20_319"/>
<feBlend mode="normal" in="SourceGraphic" in2="effect2_dropShadow_20_319" result="shape"/>
</filter>
<filter id="filter3_dd_20_319" x="176.167" y="-0.000209717" width="65.1108" height="48.4963" filterUnits="userSpaceOnUse" color-interpolation-filters="sRGB">
<feFlood flood-opacity="0" result="BackgroundImageFix"/>
<feColorMatrix in="SourceAlpha" type="matrix" values="0 0 0 0 0 0 0 0 0 0 0 0 0 0 0 0 0 0 127 0" result="hardAlpha"/>
<feOffset dy="0.448214"/>
<feGaussianBlur stdDeviation="2.24107"/>
<feColorMatrix type="matrix" values="0 0 0 0 0.717647 0 0 0 0 0.717647 0 0 0 0 0.717647 0 0 0 0.08 0"/>
<feBlend mode="normal" in2="BackgroundImageFix" result="effect1_dropShadow_20_319"/>
<feColorMatrix in="SourceAlpha" type="matrix" values="0 0 0 0 0 0 0 0 0 0 0 0 0 0 0 0 0 0 127 0" result="hardAlpha"/>
<feOffset dy="4.48214"/>
<feGaussianBlur stdDeviation="4.48214"/>
<feColorMatrix type="matrix" values="0 0 0 0 0.717647 0 0 0 0 0.717647 0 0 0 0 0.717647 0 0 0 0.08 0"/>
<feBlend mode="normal" in2="effect1_dropShadow_20_319" result="effect2_dropShadow_20_319"/>
<feBlend mode="normal" in="SourceGraphic" in2="effect2_dropShadow_20_319" result="shape"/>
</filter>
<filter id="filter4_dd_20_319" x="234.889" y="-0.000209717" width="65.1108" height="48.4963" filterUnits="userSpaceOnUse" color-interpolation-filters="sRGB">
<feFlood flood-opacity="0" result="BackgroundImageFix"/>
<feColorMatrix in="SourceAlpha" type="matrix" values="0 0 0 0 0 0 0 0 0 0 0 0 0 0 0 0 0 0 127 0" result="hardAlpha"/>
<feOffset dy="0.448214"/>
<feGaussianBlur stdDeviation="2.24107"/>
<feColorMatrix type="matrix" values="0 0 0 0 0.717647 0 0 0 0 0.717647 0 0 0 0 0.717647 0 0 0 0.08 0"/>
<feBlend mode="normal" in2="BackgroundImageFix" result="effect1_dropShadow_20_319"/>
<feColorMatrix in="SourceAlpha" type="matrix" values="0 0 0 0 0 0 0 0 0 0 0 0 0 0 0 0 0 0 127 0" result="hardAlpha"/>
<feOffset dy="4.48214"/>
<feGaussianBlur stdDeviation="4.48214"/>
<feColorMatrix type="matrix" values="0 0 0 0 0.717647 0 0 0 0 0.717647 0 0 0 0 0.717647 0 0 0 0.08 0"/>
<feBlend mode="normal" in2="effect1_dropShadow_20_319" result="effect2_dropShadow_20_319"/>
<feBlend mode="normal" in="SourceGraphic" in2="effect2_dropShadow_20_319" result="shape"/>
</filter>
</defs>
</svg>
