<svg width="167" height="34" viewBox="0 0 167 34" fill="none" xmlns="http://www.w3.org/2000/svg">
<path fill-rule="evenodd" clip-rule="evenodd" d="M150.647 0.657697H167V3.26349C166.525 3.10399 166.028 3.02177 165.527 3.01998H156.126V15.1963H165.27C165.928 15.1963 166.512 15.1242 166.999 15.0013V17.5957C166.585 17.4986 166.014 17.4493 165.307 17.4493H156.126V30.0398H165.246C165.746 30.0398 166.342 29.967 166.999 29.8084V32.6092H150.67C150.801 32.1166 150.867 31.6091 150.866 31.0996V2.20375C150.866 1.57105 150.793 1.0476 150.647 0.657697ZM146.861 8.94996L142.136 8.91425C141.905 6.25919 140.383 3.6891 137.034 3.21564C129.862 2.57009 127.84 10.4475 128.023 16.2075C128.207 21.7597 129.094 30.2955 136.498 30.2955C139.604 30.2955 142.587 27.1048 142.489 24.414L146.861 24.3783C146.544 29.9306 140.176 33.1448 137.144 33.2547C126.782 33.6082 122.446 26.7035 122.227 16.8516C122.033 7.92807 125.686 0 135.926 0C144.693 0.122113 146.386 5.30942 146.861 8.94996ZM73.1679 28.9801L76.2978 26.3621C77.9289 29.0536 79.2685 30.2826 82.5077 30.2826C85.7948 30.2826 88.5598 28.286 88.5598 24.7554C88.5598 23.0137 87.8529 21.589 86.4532 20.5179C85.8191 20.018 84.2123 19.1539 81.6794 17.9485C77.8924 16.1346 74.2033 13.7716 74.2033 9.02351C74.2033 3.03212 79.2928 0.389905 84.6622 0.194238C87.8407 0.0728394 91.7862 1.82741 93.3808 3.79907L90.203 6.24633C89.6362 5.18865 88.7936 4.30419 87.7646 3.68684C86.7356 3.0695 85.5587 2.74232 84.3587 2.74005C80.3033 2.74005 77.0891 7.44033 80.4497 10.6795C81.3016 11.5072 83.044 12.5298 85.6984 13.7474C89.9352 15.7326 93.5515 18.1063 93.5515 23.355C93.5515 25.1689 93.0766 26.8613 92.139 28.4081C90.2523 31.5252 87.098 33.0841 82.6906 33.0841C77.6246 33.0841 76.627 31.9272 73.1679 28.9801ZM28.578 0.657697H44.9176V3.26349C44.443 3.10405 43.9458 3.02184 43.4451 3.01998H34.0453V15.1963H43.1895C43.8472 15.1963 44.432 15.1242 44.9183 15.0013V17.5957C44.5042 17.4986 43.9321 17.4493 43.2387 17.4493H34.0453V30.0398H43.1652C43.6644 30.0398 44.2614 29.967 44.9183 29.8084V32.6092H28.603C28.7223 32.1148 28.7834 31.6081 28.7851 31.0996V2.20375C28.7851 1.57105 28.7116 1.0476 28.578 0.657697ZM0 0.657697H5.94212V0.950482C5.94212 1.21827 6.0271 1.57105 6.1735 2.02165L14.55 27.2391L23.1472 1.91168C23.2808 1.48607 23.3543 1.07188 23.3543 0.657697H26.24C25.948 1.169 25.7287 1.62032 25.5945 2.02165L15.7797 31.3067C15.6826 31.5866 15.5976 32.025 15.5248 32.6099H10.6538C10.5802 32.1672 10.4704 31.7313 10.3253 31.3067L0.706256 2.25302C0.484057 1.7172 0.252411 1.18534 0.0114258 0.657697H0ZM63.1103 17.3158C67.0065 16.5481 69.9901 13.5653 69.9901 9.30345C69.9901 3.71338 65.3141 0.656983 60.0782 0.656983H50.5077C50.6412 1.14472 50.7148 1.65602 50.7148 2.19161V31.0739C50.7148 31.6951 50.6412 32.2186 50.5077 32.6085H56.2063C56.0669 32.1089 55.9972 31.5925 55.9992 31.0739V17.8028L57.8252 17.9978L67.3721 32.6085H73.1072L63.1103 17.3158ZM62.1241 14.8807C61.0894 15.6105 59.8468 15.9754 58.4222 15.9754H55.9871V2.98499H58.1665C60.0304 2.98499 61.4786 3.44702 62.514 4.37179C63.9266 5.65148 64.645 7.38034 64.645 9.54767C64.645 11.8857 63.8044 13.6638 62.1241 14.8814M121.278 31.2824L110.636 1.71744C110.518 1.37561 110.448 1.01889 110.429 0.657697H105.825C105.825 1.03546 105.764 1.43679 105.618 1.83884L95.3053 31.2824C95.1704 31.7073 94.9519 32.1464 94.6598 32.6092H97.6305C97.6191 32.1222 97.6798 31.6716 97.814 31.2824L100.869 22.5995H112.62L115.64 31.2831C115.798 31.7565 115.871 32.195 115.871 32.6092H122.033C121.679 32.11 121.424 31.6594 121.278 31.2824ZM101.673 20.2493L106.641 5.82072L111.743 20.2493H101.673Z" fill="white"/>
</svg>
